<svg id="圖層_1" data-name="圖層 1" xmlns="http://www.w3.org/2000/svg" viewBox="0 0 532.47 352.72"><defs><style>.cls-1,.cls-2,.cls-6{fill:#231815;}.cls-1,.cls-5{stroke:#3e3a39;stroke-miterlimit:10;stroke-width:0.25px;}.cls-3{fill:#fff;}.cls-4,.cls-5{fill:#3e3a39;}.cls-6{font-size:9.82px;font-family:NotoSansCJKtc-Medium-B5pc-H, Noto Sans CJK TC;}</style></defs><title>logo_20200616</title><rect class="cls-1" x="115.94" y="309.7" width="138.38" height="42.89"/><path class="cls-2" d="M576.59,118.08h4v.25H577v2.33H580v.24H577v2.74h-.38Z" transform="translate(-535.25 -6.86)"/><path class="cls-2" d="M581.94,121.56v-3.48h.38v3.42a1.82,1.82,0,0,0,2.08,2c1.11,0,2.13-.45,2.13-2v-3.42h.37v3.48c0,1.72-1.27,2.18-2.5,2.18S581.94,123.28,581.94,121.56Z" transform="translate(-535.25 -6.86)"/><path class="cls-2" d="M590.78,118.33h-2.43v-.25h5.26v.25h-2.43v5.31h-.4Z" transform="translate(-535.25 -6.86)"/><path class="cls-2" d="M595.07,121.56v-3.48h.38v3.42a1.82,1.82,0,0,0,2.08,2c1.11,0,2.13-.45,2.13-2v-3.42H600v3.48c0,1.72-1.27,2.18-2.5,2.18S595.07,123.28,595.07,121.56Z" transform="translate(-535.25 -6.86)"/><path class="cls-2" d="M606.46,123.64,604.33,121h-1.67v2.62h-.38v-5.56h2.08c1.48,0,2.43.41,2.43,1.43s-.77,1.41-2,1.5l2.12,2.63Zm-2.23-2.86c1.38,0,2.14-.41,2.14-1.27s-.76-1.18-2.14-1.18h-1.57v2.45Z" transform="translate(-535.25 -6.86)"/><path class="cls-2" d="M607.89,120.85c0-1.76,1.3-2.87,3.28-2.87a3,3,0,0,1,2,.66l-.24.19a2.68,2.68,0,0,0-1.77-.58c-1.78,0-2.88,1-2.88,2.6a2.52,2.52,0,0,0,2.8,2.62,3.17,3.17,0,0,0,1.77-.44v-1.82H611V121h2.25v2.17a3.54,3.54,0,0,1-2.2.62A2.86,2.86,0,0,1,607.89,120.85Z" transform="translate(-535.25 -6.86)"/><path class="cls-2" d="M618.58,121.67h-3l-.95,2h-.38l2.68-5.56h.34l2.7,5.56h-.42Zm-.11-.25-.52-1.11c-.32-.67-.58-1.24-.86-1.94h0c-.28.7-.55,1.27-.87,1.94l-.53,1.11Z" transform="translate(-535.25 -6.86)"/><path class="cls-2" d="M622.34,118.33h-2.42v-.25h5.25v.25h-2.42v5.31h-.41Z" transform="translate(-535.25 -6.86)"/><path class="cls-2" d="M629.55,121.67h-3l-.94,2h-.38l2.68-5.56h.34l2.69,5.56h-.41Zm-.12-.25-.52-1.11c-.32-.67-.58-1.24-.86-1.94h0c-.28.7-.55,1.27-.87,1.94l-.53,1.11Z" transform="translate(-535.25 -6.86)"/><path class="cls-2" d="M658.13,114.24h4v.25h-3.63v2.32h3.06v.25h-3.06v2.74h-.39Z" transform="translate(-535.25 -6.86)"/><path class="cls-2" d="M663.48,117.71v-3.47h.39v3.41a1.82,1.82,0,0,0,2.08,2c1.11,0,2.12-.45,2.12-2v-3.41h.37v3.47c0,1.73-1.27,2.19-2.49,2.19S663.48,119.44,663.48,117.71Z" transform="translate(-535.25 -6.86)"/><path class="cls-2" d="M672.32,114.49H669.9v-.25h5.25v.25h-2.42v5.31h-.41Z" transform="translate(-535.25 -6.86)"/><path class="cls-2" d="M676.61,117.71v-3.47H677v3.41a1.82,1.82,0,0,0,2.08,2c1.11,0,2.12-.45,2.12-2v-3.41h.37v3.47c0,1.73-1.27,2.19-2.49,2.19S676.61,119.44,676.61,117.71Z" transform="translate(-535.25 -6.86)"/><path class="cls-2" d="M688,119.8l-2.12-2.62h-1.67v2.62h-.39v-5.56h2.09c1.48,0,2.42.4,2.42,1.43s-.77,1.4-2,1.49l2.12,2.64Zm-2.23-2.87c1.38,0,2.15-.4,2.15-1.26s-.77-1.18-2.15-1.18h-1.56v2.44Z" transform="translate(-535.25 -6.86)"/><path class="cls-2" d="M689.43,117c0-1.75,1.31-2.86,3.29-2.86a3,3,0,0,1,2,.66l-.23.19a2.66,2.66,0,0,0-1.77-.58c-1.79,0-2.88,1-2.88,2.59a2.51,2.51,0,0,0,2.79,2.63,3.23,3.23,0,0,0,1.77-.44v-1.83h-1.85v-.25h2.26v2.17a3.64,3.64,0,0,1-2.21.62A2.87,2.87,0,0,1,689.43,117Z" transform="translate(-535.25 -6.86)"/><path class="cls-2" d="M700.12,117.82h-3l-.94,2h-.39l2.69-5.56h.34l2.69,5.56h-.41Zm-.11-.24-.52-1.11c-.32-.68-.58-1.25-.86-1.94h0c-.28.69-.55,1.26-.87,1.94l-.53,1.11Z" transform="translate(-535.25 -6.86)"/><path class="cls-2" d="M703.89,114.49h-2.43v-.25h5.25v.25h-2.42v5.31h-.4Z" transform="translate(-535.25 -6.86)"/><path class="cls-2" d="M711.09,117.82H708l-.94,2h-.38l2.68-5.56h.34l2.7,5.56H712Zm-.11-.24-.52-1.11c-.32-.68-.58-1.25-.86-1.94h0c-.28.69-.55,1.26-.87,1.94l-.53,1.11Z" transform="translate(-535.25 -6.86)"/><rect class="cls-2" x="579.08" y="48.4" width="25.01" height="25.01" transform="translate(-318.91 -407.34) rotate(45)"/><path class="cls-3" d="M576,60.65l15.5-15.49,1.63,1.63-9.65,9.66,1.79,1.79L593.54,50l1.64,1.64-8.28,8.29L590,63l-5.84,5.84Z" transform="translate(-535.25 -6.86)"/><path class="cls-3" d="M573,76.69c4.93-4.93,9.59-5.89,11.79-3.69,1.21,1.21,1.16,3,.71,4.56l-3.31,1.21a2.62,2.62,0,0,0-.37-2.67c-1.21-1.22-3.79-.38-6.67,2.49s-3.91,5.38-2.39,6.9a1.42,1.42,0,0,0,1.17.41l2.38-2.38L575,82.22l2.9-2.9,3.07,3.06L574,89.29a4.74,4.74,0,0,1-4.55-.94C567.19,86.06,568,81.69,573,76.69Z" transform="translate(-535.25 -6.86)"/><path class="cls-2" d="M576.11,100.91c0-7,2.61-10.94,5.73-10.94,1.7,0,2.92,1.29,3.72,2.72l-1.49,3.2c-.56-.93-1.17-1.63-2.14-1.63-1.72,0-3,2.41-3,6.48s1,6.57,3.19,6.57a1.43,1.43,0,0,0,1.12-.53v-3.37h-1.85v-4.1h4.34v9.77a4.77,4.77,0,0,1-3.89,2.55C578.64,111.63,576.11,108,576.11,100.91Z" transform="translate(-535.25 -6.86)"/><polygon class="cls-2" points="58.26 83.31 67.92 83.31 67.92 87.11 61.05 87.11 61.05 101.15 65.6 101.15 65.6 96.72 63.26 96.72 63.26 92.23 67.92 92.23 67.92 104.98 58.26 104.98 58.26 83.31"/><polygon class="cls-3" points="65.03 47.42 71.86 54.25 69.18 56.93 64.32 52.07 54.39 62 57.61 65.22 60.74 62.09 59.09 60.44 62.26 57.26 65.56 60.56 56.54 69.57 49.71 62.74 65.03 47.42"/><rect class="cls-2" x="671.11" y="77.41" width="28.35" height="28.35" transform="translate(-269.77 -464.61) rotate(45)"/><path class="cls-3" d="M667.25,91.59l18-18L687,75.24l-9,9L680,86.33l7.42-7.43,1.71,1.71L681.73,88l3,3-9,9Z" transform="translate(-535.25 -6.86)"/><polygon class="cls-3" points="150.04 102.77 141.53 94.25 144.68 91.1 150.74 97.16 160.88 87.04 156.87 83.02 152.59 87.28 154.65 89.34 150.51 93.48 146.4 89.37 159.56 76.21 168.08 84.73 150.04 102.77"/><polygon class="cls-2" points="145.46 199.86 145.46 192.57 150.79 192.57 150.79 193.14 146.19 193.14 146.19 195.83 150.07 195.83 150.07 196.39 146.19 196.39 146.19 199.86 145.46 199.86"/><path class="cls-4" d="M685.92,199.56v.32h-4.6v2.94h3.88v.31h-3.88v3.47h-.49v-7h5.09m.25-.25h-5.59v7.54h1v-3.47h3.88v-.81h-3.88v-2.44h4.6v-.82Z" transform="translate(-535.25 -6.86)"/><path class="cls-2" d="M690.72,206.85c-2.09,0-3.25-1-3.25-2.89v-4.53h.74v4.45a2.2,2.2,0,0,0,2.51,2.38c1.17,0,2.56-.41,2.56-2.38v-4.45H694V204C694,206.47,692,206.85,690.72,206.85Z" transform="translate(-535.25 -6.86)"/><path class="cls-4" d="M693.88,199.56V204c0,2.18-1.61,2.76-3.16,2.76s-3.12-.58-3.12-2.76v-4.4h.49v4.32c0,1.93,1.25,2.5,2.63,2.5s2.69-.57,2.69-2.5v-4.32h.47m.25-.25h-1v4.57c0,1.5-.82,2.25-2.44,2.25s-2.38-.75-2.38-2.25v-4.57h-1V204c0,1.94,1.2,3,3.37,3s3.41-1.07,3.41-3v-4.65Z" transform="translate(-535.25 -6.86)"/><polygon class="cls-2" points="163.41 199.86 163.41 193.14 160.34 193.14 160.34 192.57 167.24 192.57 167.24 193.14 164.17 193.14 164.17 199.86 163.41 199.86"/><path class="cls-4" d="M702.36,199.56v.32H699.3v6.72h-.52v-6.72h-3.06v-.32h6.64m.25-.25h-7.14v.82h3.06v6.72h1v-6.72h3.06v-.82Z" transform="translate(-535.25 -6.86)"/><path class="cls-2" d="M707.33,206.85c-2.09,0-3.24-1-3.24-2.89v-4.53h.74v4.45a2.19,2.19,0,0,0,2.5,2.38c1.17,0,2.57-.41,2.57-2.38v-4.45h.72V204C710.62,206.47,708.56,206.85,707.33,206.85Z" transform="translate(-535.25 -6.86)"/><path class="cls-4" d="M710.49,199.56V204c0,2.18-1.61,2.76-3.16,2.76s-3.12-.58-3.12-2.76v-4.4h.49v4.32c0,1.93,1.26,2.5,2.63,2.5s2.69-.57,2.69-2.5v-4.32h.47m.25-.25h-1v4.57c0,1.5-.82,2.25-2.44,2.25s-2.38-.75-2.38-2.25v-4.57h-1V204c0,1.94,1.2,3,3.37,3s3.41-1.07,3.41-3v-4.65Z" transform="translate(-535.25 -6.86)"/><path class="cls-2" d="M718.56,206.72l-2.68-3.31H714v3.31h-.73v-7.29H716c2.12,0,3.2.66,3.2,1.94,0,1.1-.88,1.82-2.43,2l2.71,3.35Zm-2.76-3.87c1.72,0,2.59-.5,2.59-1.48s-.8-1.37-2.59-1.37H714v2.85Z" transform="translate(-535.25 -6.86)"/><path class="cls-4" d="M716,199.56c1.88,0,3.07.51,3.07,1.81,0,1.14-1,1.78-2.54,1.89l2.69,3.34h-.57l-2.68-3.32h-2.11v3.32h-.49v-7H716M713.83,203h2c1.74,0,2.71-.51,2.71-1.6s-1-1.49-2.71-1.49h-2V203m2.14-3.66h-2.88v7.54h1v-3.32h1.74l2.61,3.22.07.1h1.21l-.33-.41-2.4-3c1.48-.22,2.31-1,2.31-2.09,0-1.37-1.11-2.06-3.32-2.06Zm-1.89.82h1.73c2.18,0,2.46.66,2.46,1.24,0,.9-.83,1.35-2.46,1.35h-1.73v-2.59Z" transform="translate(-535.25 -6.86)"/><path class="cls-2" d="M724.45,206.85c-2.48,0-4.14-1.53-4.14-3.79s1.68-3.75,4.28-3.75a4,4,0,0,1,2.62.86l.12.1-.5.4-.08-.06a3.25,3.25,0,0,0-2.16-.71c-2.17,0-3.52,1.21-3.52,3.16s1.31,3.2,3.42,3.2a4,4,0,0,0,2.11-.5v-2.12h-2.34v-.57h3.1V206l-.05,0A4.67,4.67,0,0,1,724.45,206.85Z" transform="translate(-535.25 -6.86)"/><path class="cls-4" d="M724.59,199.43a3.86,3.86,0,0,1,2.54.84l-.3.24a3.35,3.35,0,0,0-2.24-.74c-2.25,0-3.64,1.27-3.64,3.29s1.32,3.32,3.54,3.32a4.07,4.07,0,0,0,2.24-.56v-2.31h-2.35v-.32h2.86v2.75a4.57,4.57,0,0,1-2.79.78c-2.41,0-4-1.44-4-3.66s1.65-3.63,4.15-3.63m0-.25c-2.68,0-4.4,1.52-4.4,3.88s1.71,3.91,4.26,3.91a4.78,4.78,0,0,0,2.94-.84l.1-.07v-3.12h-3.36v.82h2.35v1.93a4.16,4.16,0,0,1-2,.44,3,3,0,0,1-3.29-3.07c0-1.87,1.3-3,3.39-3a3.19,3.19,0,0,1,2.08.68l.16.13.16-.13.3-.24.24-.19-.24-.2a4.14,4.14,0,0,0-2.7-.89Z" transform="translate(-535.25 -6.86)"/><path class="cls-2" d="M735.07,206.72l-1.18-2.5h-3.7l-1.19,2.5h-.76l3.51-7.29h.59l3.53,7.29Zm-1.44-3.06-.58-1.23c-.37-.78-.67-1.45-1-2.23-.32.77-.63,1.44-1,2.19l-.6,1.27Z" transform="translate(-535.25 -6.86)"/><path class="cls-4" d="M732.26,199.56l3.41,7h-.52L734,204.1h-3.86l-1.19,2.5h-.48l3.39-7h.43m-2,4.23h3.56l-.65-1.41c-.41-.85-.74-1.57-1.09-2.45H732c-.36.88-.7,1.6-1.1,2.45l-.67,1.41m2.16-4.48h-.75l-.07.14-3.39,7-.17.36h1l.07-.15,1.12-2.35h3.54l1.11,2.35.07.15h1.08l-.18-.36-3.4-7-.07-.14Zm-1.77,4.23.5-1c.33-.69.62-1.3.9-2,.29.69.57,1.3.89,2l.49,1Z" transform="translate(-535.25 -6.86)"/><polygon class="cls-2" points="203.35 199.86 203.35 193.14 200.28 193.14 200.28 192.57 207.18 192.57 207.18 193.14 204.11 193.14 204.11 199.86 203.35 199.86"/><path class="cls-4" d="M742.31,199.56v.32h-3.07v6.72h-.51v-6.72h-3.07v-.32h6.65m.25-.25h-7.15v.82h3.07v6.72h1v-6.72h3.07v-.82Z" transform="translate(-535.25 -6.86)"/><path class="cls-2" d="M748.94,206.72l-1.18-2.5h-3.69l-1.2,2.5h-.76l3.52-7.29h.58l3.53,7.29Zm-1.44-3.06-.57-1.23c-.38-.78-.68-1.45-1-2.23-.33.79-.65,1.46-1,2.23l-.58,1.23Z" transform="translate(-535.25 -6.86)"/><path class="cls-4" d="M746.14,199.56l3.4,7H749l-1.18-2.5H744l-1.2,2.5h-.48l3.39-7h.44m-2,4.23h3.57l-.66-1.41c-.41-.85-.73-1.57-1.09-2.45h-.05c-.35.88-.69,1.6-1.1,2.45l-.67,1.41m2.16-4.48h-.74l-.07.14-3.4,7-.17.36h1l.07-.15,1.12-2.35h3.54l1.11,2.35.07.15h1.08l-.17-.36-3.41-7-.07-.14Zm-1.76,4.23.5-1c.32-.69.61-1.3.9-2,.28.68.57,1.3.89,2l.48,1Z" transform="translate(-535.25 -6.86)"/><rect class="cls-2" x="702.02" y="164.48" width="26.33" height="26.33" transform="translate(-200.16 -460.55) rotate(45)"/><path class="cls-3" d="M698.43,177.65l16.76-16.76,1.57,1.57-8.38,8.38,1.93,1.92,6.89-6.89,1.59,1.58-6.9,6.9,2.83,2.83-8.38,8.38Z" transform="translate(-535.25 -6.86)"/><polygon class="cls-3" points="179.95 187.55 172.03 179.64 174.97 176.7 180.59 182.34 190.01 172.94 186.28 169.21 182.31 173.16 184.23 175.07 180.38 178.92 176.56 175.1 188.79 162.88 196.71 170.79 179.95 187.55"/><rect class="cls-2" x="659.84" y="269.92" width="18.95" height="18.95" transform="translate(-141.65 -398.31) rotate(45)"/><path class="cls-3" d="M657.25,279.4l12.07-12.06,1.13,1.13-6,6,1.38,1.38,5-5,1.14,1.14-5,5,2,2-6,6Z" transform="translate(-535.25 -6.86)"/><polygon class="cls-3" points="134.07 284.6 128.38 278.91 130.49 276.8 134.54 280.85 141.32 274.08 138.63 271.4 135.77 274.24 137.15 275.62 134.38 278.39 131.64 275.64 140.44 266.85 146.13 272.54 134.07 284.6"/><rect class="cls-2" x="215.86" y="73.2" width="28.35" height="28.35"/><rect class="cls-2" x="215.86" y="41.8" width="1.42" height="28.35"/><rect class="cls-2" x="242.79" y="41.8" width="1.42" height="28.35"/><rect class="cls-2" x="229.33" y="41.8" width="1.42" height="28.35"/><path class="cls-3" d="M752.53,107V81.48h2.4V94.24h2.92V83.74h2.41v10.5h4.32V107Z" transform="translate(-535.25 -6.86)"/><polygon class="cls-3" points="242.8 100.13 230.76 100.13 230.76 95.67 239.33 95.67 239.34 81.34 233.66 81.34 233.65 87.38 236.57 87.38 236.57 93.23 230.76 93.23 230.76 74.62 242.8 74.62 242.8 100.13"/><path class="cls-2" d="M701.49,215.32a9.53,9.53,0,0,0,3.62,2.9,5,5,0,0,0-.66.79,10.5,10.5,0,0,1-3.43-2.95v3.43h-1V216.1a10.64,10.64,0,0,1-3.42,2.9,6.06,6.06,0,0,0-.66-.78,9.49,9.49,0,0,0,3.6-2.9h-3.32v-.9h3.8v-1.49H697V212h3.09v-1.54h1V212h3.17v.91H701v1.49h3.86v.9Z" transform="translate(-535.25 -6.86)"/><path class="cls-2" d="M714,216.13a16.52,16.52,0,0,0-1.41-1.28,4.55,4.55,0,0,1-.77,1,4.6,4.6,0,0,0-.73-.47,8.61,8.61,0,0,0,3.81,2.87,3.67,3.67,0,0,0-.69.83,9.33,9.33,0,0,1-3.42-2.73v3.12h-1V216.4a9.86,9.86,0,0,1-3.39,2.69,4,4,0,0,0-.65-.78,9.07,9.07,0,0,0,4-3.31v-2.34h-3.67v-.88h3.67v-1.3h1v1.3h3.78v.88h-3.78V215a4.38,4.38,0,0,0,.28.42,4.6,4.6,0,0,0,1.34-2.54l.89.16a6.71,6.71,0,0,1-.35,1.1,20.52,20.52,0,0,1,1.7,1.41Zm-5.3-3.13a8,8,0,0,1-.37,1.11,11.84,11.84,0,0,1,1,1l-.62.65a8.57,8.57,0,0,0-.81-.84,5.21,5.21,0,0,1-1.19,1.46,4.17,4.17,0,0,0-.71-.6,4.91,4.91,0,0,0,1.76-2.92Z" transform="translate(-535.25 -6.86)"/><path class="cls-2" d="M721.58,215.16c.36,2,1,3.33,1.89,3.33.28,0,.39-.38.46-1.44a2.1,2.1,0,0,0,.76.47c-.15,1.49-.47,1.87-1.27,1.87-1.49,0-2.35-1.76-2.77-4.23h-2.77V218l2.58-.69a4.21,4.21,0,0,0,.07.83,21.69,21.69,0,0,0-3.59,1.14,2.58,2.58,0,0,0-.38-.76.77.77,0,0,0,.38-.72v-6.32a37.13,37.13,0,0,0,6.37-.91l.47.82a19.89,19.89,0,0,1-2.48.48,20.93,20.93,0,0,0,.15,2.34h3.1v.91Zm-1.05-.91c-.08-.7-.13-1.44-.15-2.21-.83.1-1.69.18-2.5.24v2Z" transform="translate(-535.25 -6.86)"/><path class="cls-2" d="M734.41,218.32v.85h-8.78v-.85h4v-1h-3v-.84h3v-.76h-.74v-2h-1.1a3,3,0,0,1-1.5,2.24,4.47,4.47,0,0,0-.6-.63,2.35,2.35,0,0,0,1.23-1.61h-1.11v-.81H727v-1.2h-.85v-.81h4.4v.81h-.8v1.2h1v.81h-1v1.82h.82v.94h2.89v.84h-2.89v1Zm-5.57-5.45v-1.2h-1v1.2Zm3.23,1.45h-.83v-3.27h.83Zm1.83.51c0,.46-.09.69-.41.83a4.42,4.42,0,0,1-1.5.15,2.88,2.88,0,0,0-.27-.83c.5,0,1,0,1.12,0s.2,0,.2-.17v-4.25h.86Z" transform="translate(-535.25 -6.86)"/><polygon class="cls-2" points="152.14 270.49 152.14 260.73 159.27 260.73 159.27 261.44 153.07 261.44 153.07 265.12 158.3 265.12 158.3 265.82 153.07 265.82 153.07 270.49 152.14 270.49"/><path class="cls-4" d="M694.38,267.73v.44h-6.2v3.95h5.23v.42h-5.23v4.68h-.65v-9.49h6.85m.28-.28h-7.41V277.5h1.21v-4.68h5.23v-1h-5.23v-3.39h6.2v-1Z" transform="translate(-535.25 -6.86)"/><path class="cls-2" d="M700.85,277.53c-2.8,0-4.35-1.38-4.35-3.87v-6.07h.94v6c0,2.67,1.85,3.23,3.41,3.23s3.48-.56,3.48-3.23v-6h.92v6.07C705.25,277,702.49,277.53,700.85,277.53Z" transform="translate(-535.25 -6.86)"/><path class="cls-4" d="M705.1,267.73v5.93c0,2.94-2.17,3.73-4.25,3.73s-4.2-.79-4.2-3.73v-5.93h.65v5.83c0,2.6,1.7,3.37,3.55,3.37s3.62-.77,3.62-3.37v-5.83h.63m.29-.28h-1.2v6.11c0,2.05-1.13,3.09-3.34,3.09s-3.27-1-3.27-3.09v-6.11h-1.22v6.21c0,2.58,1.6,4,4.49,4s4.54-1.43,4.54-4v-6.21Z" transform="translate(-535.25 -6.86)"/><polygon class="cls-2" points="176.32 270.49 176.32 261.44 172.19 261.44 172.19 260.73 181.43 260.73 181.43 261.44 177.3 261.44 177.3 270.49 176.32 270.49"/><path class="cls-4" d="M716.54,267.73v.44H712.4v9.05h-.68v-9.05h-4.14v-.44h9m.28-.28H707.3v1h4.14v9.05h1.25v-9.05h4.13v-1Z" transform="translate(-535.25 -6.86)"/><path class="cls-2" d="M723.24,277.53c-2.81,0-4.35-1.38-4.35-3.87v-6.07h.94v6c0,2.67,1.85,3.23,3.41,3.23s3.47-.56,3.47-3.23v-6h.92v6.07C727.63,277,724.88,277.53,723.24,277.53Z" transform="translate(-535.25 -6.86)"/><path class="cls-4" d="M727.49,267.73v5.93c0,2.94-2.17,3.73-4.26,3.73s-4.2-.79-4.2-3.73v-5.93h.66v5.83c0,2.6,1.69,3.37,3.54,3.37s3.63-.77,3.63-3.37v-5.83h.63m.28-.28h-1.2v6.11c0,2.05-1.12,3.09-3.34,3.09s-3.26-1-3.26-3.09v-6.11h-1.22v6.21c0,2.58,1.59,4,4.48,4s4.54-1.43,4.54-4v-6.21Z" transform="translate(-535.25 -6.86)"/><path class="cls-2" d="M738.38,277.36l-3.62-4.47h-2.64v4.47h-.93v-9.77h3.69c2.83,0,4.27.87,4.27,2.59,0,1.5-1.17,2.44-3.29,2.66l3.64,4.52Zm-3.73-5.17c2.33,0,3.51-.68,3.51-2s-1.08-1.87-3.51-1.87h-2.53v3.88Z" transform="translate(-535.25 -6.86)"/><path class="cls-4" d="M734.88,267.73c2.52,0,4.13.7,4.13,2.45,0,1.52-1.31,2.39-3.43,2.54l3.62,4.5h-.76l-3.61-4.47H732v4.47h-.65v-9.49h3.55m-2.9,4.6h2.67c2.35,0,3.65-.69,3.65-2.15s-1.3-2-3.65-2H732v4.16m2.9-4.88h-3.83V277.5h1.21V273h2.43l3.54,4.36.08.11h1.48l-.37-.46L736.13,273c2-.28,3.16-1.27,3.16-2.77,0-1.81-1.48-2.73-4.41-2.73Zm-2.62,1h2.39c3,0,3.37.92,3.37,1.73,0,1.24-1.13,1.87-3.37,1.87h-2.39v-3.6Z" transform="translate(-535.25 -6.86)"/><path class="cls-2" d="M746.29,277.53c-3.31,0-5.54-2-5.54-5.08s2.25-5,5.74-5a5.38,5.38,0,0,1,3.51,1.16l.14.11-.64.5-.08-.07a4.47,4.47,0,0,0-2.93-1c-3,0-4.77,1.64-4.77,4.29s1.77,4.34,4.62,4.34a5.48,5.48,0,0,0,2.88-.69v-2.9h-3.16v-.71h4.13v3.91l-.05,0A6.27,6.27,0,0,1,746.29,277.53Z" transform="translate(-535.25 -6.86)"/><path class="cls-4" d="M746.49,267.56a5.24,5.24,0,0,1,3.42,1.13l-.4.32a4.59,4.59,0,0,0-3-1c-3,0-4.91,1.71-4.91,4.43s1.78,4.48,4.76,4.48a5.44,5.44,0,0,0,3-.76v-3.11H746.2v-.43h3.85v3.7a6.13,6.13,0,0,1-3.76,1.06c-3.25,0-5.4-1.95-5.4-4.94s2.22-4.89,5.6-4.89m0-.28c-3.58,0-5.88,2-5.88,5.17s2.28,5.22,5.68,5.22a6.43,6.43,0,0,0,3.94-1.12l.1-.09v-4.11h-4.41v1h3.16V276a5.41,5.41,0,0,1-2.74.63c-2.76,0-4.48-1.61-4.48-4.2s1.77-4.15,4.63-4.15a4.33,4.33,0,0,1,2.84.93l.17.15.18-.15.41-.32.27-.22-.27-.22a5.54,5.54,0,0,0-3.6-1.19Z" transform="translate(-535.25 -6.86)"/><path class="cls-2" d="M760.62,277.36,759,274h-5l-1.61,3.37h-1l4.71-9.77h.76l4.73,9.77Zm-1.92-4.07-.78-1.7c-.5-1-.93-2-1.38-3.07-.44,1.08-.88,2-1.38,3l-.82,1.73Z" transform="translate(-535.25 -6.86)"/><path class="cls-4" d="M756.82,267.73l4.59,9.49h-.7l-1.59-3.37h-5.19l-1.61,3.37h-.65l4.57-9.49h.58m-2.7,5.7h4.8l-.88-1.9c-.55-1.14-1-2.11-1.47-3.3h-.07c-.47,1.19-.93,2.16-1.48,3.3l-.9,1.9m2.88-6h-.94l-.07.16-4.58,9.48-.19.41h1.28l.07-.16,1.53-3.21h4.84l1.51,3.21.08.16h1.33l-.19-.41-4.6-9.48-.07-.16Zm-2.43,5.7.71-1.49c.46-1,.86-1.82,1.26-2.77.4,1,.8,1.82,1.25,2.77l.69,1.49Z" transform="translate(-535.25 -6.86)"/><polygon class="cls-2" points="230.14 270.49 230.14 261.44 226.01 261.44 226.01 260.73 235.25 260.73 235.25 261.44 231.11 261.44 231.11 270.49 230.14 270.49"/><path class="cls-4" d="M770.35,267.73v.44h-4.13v9.05h-.69v-9.05H761.4v-.44h9m.28-.28h-9.51v1h4.13v9.05h1.25v-9.05h4.13v-1Z" transform="translate(-535.25 -6.86)"/><path class="cls-2" d="M779.31,277.36,777.72,274h-5l-1.61,3.37h-1l4.71-9.77h.75l4.73,9.77Zm-1.91-4.07-.79-1.7c-.5-1-.93-2-1.38-3.07-.44,1.09-.88,2-1.39,3.07l-.8,1.7Z" transform="translate(-535.25 -6.86)"/><path class="cls-4" d="M775.52,267.73l4.59,9.49h-.71l-1.59-3.37h-5.19L771,277.22h-.65l4.57-9.49h.59m-2.71,5.7h4.81l-.88-1.9c-.55-1.14-1-2.11-1.47-3.3h-.07c-.48,1.19-.94,2.16-1.48,3.3l-.91,1.9m2.88-6h-.93l-.08.16-4.57,9.48-.2.41h1.28l.08-.16,1.53-3.21h4.83l1.52,3.21.07.16h1.34l-.2-.41-4.59-9.48-.08-.16Zm-2.43,5.7.71-1.49c.46-1,.86-1.82,1.26-2.77.41,1,.8,1.82,1.25,2.77l.7,1.49Z" transform="translate(-535.25 -6.86)"/><path class="cls-2" d="M693.14,287.13a11.47,11.47,0,0,0,4.35,3.47,6.52,6.52,0,0,0-.8.94,12.57,12.57,0,0,1-4.11-3.53v4.11h-1.15v-4.06a12.78,12.78,0,0,1-4.1,3.47,7.72,7.72,0,0,0-.8-.93,11.39,11.39,0,0,0,4.32-3.47h-4v-1.08h4.56v-1.79h-3.71v-1.08h3.71v-1.85h1.15v1.85h3.8v1.08h-3.8v1.79h4.62v1.08Z" transform="translate(-535.25 -6.86)"/><path class="cls-2" d="M708.17,288.09a20.88,20.88,0,0,0-1.7-1.52,5.47,5.47,0,0,1-.91,1.21,5.43,5.43,0,0,0-.89-.56,10.41,10.41,0,0,0,4.57,3.44,4.12,4.12,0,0,0-.82,1,11.27,11.27,0,0,1-4.1-3.27v3.74h-1.15v-3.71a11.88,11.88,0,0,1-4.06,3.23,4.94,4.94,0,0,0-.78-.93,10.93,10.93,0,0,0,4.84-4v-2.8h-4.39v-1.06h4.39v-1.55h1.15v1.55h4.53v1.06h-4.53v2.74c.11.18.21.34.33.51a5.53,5.53,0,0,0,1.61-3.05l1.06.19a7,7,0,0,1-.41,1.32,24.11,24.11,0,0,1,2,1.69Zm-6.36-3.75a9,9,0,0,1-.43,1.33,16.94,16.94,0,0,1,1.25,1.17l-.75.77a10.46,10.46,0,0,0-1-1,6,6,0,0,1-1.43,1.74,5.26,5.26,0,0,0-.84-.71,5.93,5.93,0,0,0,2.1-3.5Z" transform="translate(-535.25 -6.86)"/><path class="cls-2" d="M717.2,286.93c.44,2.39,1.24,4,2.26,4,.35,0,.48-.46.56-1.72a2.36,2.36,0,0,0,.9.55c-.17,1.79-.55,2.25-1.51,2.25-1.78,0-2.82-2.1-3.32-5.07h-3.32v3.45l3.09-.83a5,5,0,0,0,.09,1c-3.49,1-4,1.17-4.3,1.37a3.05,3.05,0,0,0-.46-.92.91.91,0,0,0,.46-.86v-7.56a44.1,44.1,0,0,0,7.63-1.1l.56,1a29.35,29.35,0,0,1-3,.58,27,27,0,0,0,.17,2.8h3.71v1.08ZM716,285.85c-.1-.85-.16-1.73-.18-2.65-1,.12-2,.21-3,.28v2.37Z" transform="translate(-535.25 -6.86)"/><path class="cls-2" d="M732.57,290.72v1H722.05v-1h4.73v-1.25h-3.53v-1h3.53v-.92h-.88v-2.39h-1.32a3.62,3.62,0,0,1-1.8,2.69,5.22,5.22,0,0,0-.72-.77,2.8,2.8,0,0,0,1.49-1.92h-1.33v-1h1.42v-1.44h-1v-1h5.27v1h-1v1.44h1.23v1h-1.23v2.18h1v1.13h3.46v1h-3.46v1.25Zm-6.67-6.53v-1.44h-1.25v1.44Zm3.87,1.74h-1V282h1Zm2.19.61c0,.55-.11.82-.49,1a5.41,5.41,0,0,1-1.79.18,4,4,0,0,0-.33-1c.6,0,1.17,0,1.34,0s.23-.05.23-.2v-5.1h1Z" transform="translate(-535.25 -6.86)"/><rect class="cls-3" x="660.35" y="328.91" width="18.95" height="18.95" transform="translate(-99.79 -381.39) rotate(45)"/><path class="cls-2" d="M657.76,338.38l12.06-12.06,1.13,1.14-6,6,1.39,1.38,5-5,1.14,1.14-5,5,2,2-6,6Z" transform="translate(-535.25 -6.86)"/><polygon class="cls-2" points="134.58 343.59 128.88 337.89 130.99 335.78 135.04 339.83 141.82 333.07 139.14 330.38 136.28 333.23 137.66 334.61 134.89 337.38 132.14 334.63 140.94 325.83 146.64 331.53 134.58 343.59"/><polygon class="cls-3" points="152.66 329.46 152.66 319.73 159.76 319.73 159.76 320.41 153.56 320.41 153.56 324.12 158.79 324.12 158.79 324.79 153.56 324.79 153.56 329.46 152.66 329.46"/><path class="cls-3" d="M694.89,326.72v.43h-6.2v4h5.23v.42h-5.23v4.67H688v-9.48h6.85m.25-.25h-7.35v10h1.15v-4.67h5.23v-.92h-5.23V327.4h6.2v-.93Z" transform="translate(-535.25 -6.86)"/><path class="cls-3" d="M701.36,336.5c-2.8,0-4.33-1.37-4.33-3.85v-6h.9v5.94c0,2.69,1.86,3.25,3.43,3.25s3.49-.56,3.49-3.25V326.6h.89v6C705.74,336,703,336.5,701.36,336.5Z" transform="translate(-535.25 -6.86)"/><path class="cls-3" d="M705.61,326.72v5.93c0,2.94-2.17,3.72-4.25,3.72s-4.21-.78-4.21-3.72v-5.93h.66v5.83c0,2.59,1.69,3.36,3.55,3.36s3.62-.77,3.62-3.36v-5.83h.63m.25-.25h-1.13v6.08c0,2.07-1.14,3.11-3.37,3.11s-3.3-1-3.3-3.11v-6.08H696.9v6.18c0,2.56,1.58,4,4.46,4s4.5-1.41,4.5-4v-6.18Z" transform="translate(-535.25 -6.86)"/><polygon class="cls-3" points="176.85 329.46 176.85 320.41 172.72 320.41 172.72 319.73 181.92 319.73 181.92 320.41 177.79 320.41 177.79 329.46 176.85 329.46"/><path class="cls-3" d="M717,326.72v.43h-4.13v9.05h-.69v-9.05h-4.13v-.43H717m.25-.25h-9.45v.93H712v9.05h1.19V327.4h4.13v-.93Z" transform="translate(-535.25 -6.86)"/><path class="cls-3" d="M723.74,336.5c-2.79,0-4.33-1.37-4.33-3.85v-6h.91v5.94c0,2.69,1.86,3.25,3.42,3.25s3.5-.56,3.5-3.25V326.6h.88v6C728.12,336,725.38,336.5,723.74,336.5Z" transform="translate(-535.25 -6.86)"/><path class="cls-3" d="M728,326.72v5.93c0,2.94-2.17,3.72-4.26,3.72s-4.2-.78-4.2-3.72v-5.93h.65v5.83c0,2.59,1.7,3.36,3.55,3.36s3.62-.77,3.62-3.36v-5.83H728m.25-.25h-1.14v6.08c0,2.07-1.13,3.11-3.37,3.11s-3.3-1-3.3-3.11v-6.08h-1.15v6.18c0,2.56,1.58,4,4.45,4s4.51-1.41,4.51-4v-6.18Z" transform="translate(-535.25 -6.86)"/><path class="cls-3" d="M738.89,336.33l-3.62-4.47h-2.66v4.47h-.9V326.6h3.67c2.83,0,4.26.86,4.26,2.56,0,1.5-1.17,2.44-3.3,2.65l3.63,4.52Zm-3.73-5.14c2.34,0,3.53-.68,3.53-2s-1.09-1.88-3.53-1.88h-2.55v3.91Z" transform="translate(-535.25 -6.86)"/><path class="cls-3" d="M735.38,326.72c2.53,0,4.14.69,4.14,2.44,0,1.53-1.31,2.39-3.43,2.55l3.62,4.49H739l-3.62-4.46h-2.84v4.46h-.65v-9.48h3.54m-2.89,4.6h2.67c2.34,0,3.65-.69,3.65-2.16s-1.31-2-3.65-2h-2.67v4.17m2.89-4.85h-3.79v10h1.15V332h2.47l3.55,4.37.07.09h1.4l-.32-.41-3.33-4.13c2-.27,3.19-1.25,3.19-2.75,0-1.78-1.48-2.69-4.39-2.69Zm-2.64.93h2.42c3,0,3.4.94,3.4,1.76,0,1.27-1.15,1.91-3.4,1.91h-2.42V327.4Z" transform="translate(-535.25 -6.86)"/><path class="cls-3" d="M746.8,336.5c-3.31,0-5.53-2-5.53-5.07s2.25-5,5.72-5a5.38,5.38,0,0,1,3.51,1.16l.12.09-.61.49-.08-.06a4.43,4.43,0,0,0-2.94-1c-3,0-4.78,1.65-4.78,4.3s1.78,4.36,4.64,4.36a5.49,5.49,0,0,0,2.9-.7v-2.92h-3.17v-.68h4.1v3.88l0,0A6.26,6.26,0,0,1,746.8,336.5Z" transform="translate(-535.25 -6.86)"/><path class="cls-3" d="M747,326.55a5.25,5.25,0,0,1,3.43,1.12L750,328a4.52,4.52,0,0,0-3-1c-3,0-4.91,1.71-4.91,4.42s1.79,4.48,4.77,4.48a5.44,5.44,0,0,0,3-.75v-3.11h-3.16v-.43h3.85v3.69a6.06,6.06,0,0,1-3.76,1.06c-3.25,0-5.41-1.94-5.41-4.94s2.23-4.88,5.6-4.88m0-.25c-3.55,0-5.85,2-5.85,5.13s2.28,5.19,5.66,5.19a6.31,6.31,0,0,0,3.91-1.11l.1-.08v-4.06h-4.35v.93h3.16V335a5.51,5.51,0,0,1-2.77.63c-2.79,0-4.52-1.62-4.52-4.23s1.79-4.17,4.66-4.17a4.32,4.32,0,0,1,2.86.93l.16.13.16-.13.41-.32.24-.2-.25-.19A5.51,5.51,0,0,0,747,326.3Z" transform="translate(-535.25 -6.86)"/><path class="cls-3" d="M761.13,336.33,759.55,333h-5l-1.6,3.37H752l4.7-9.73h.74l4.71,9.73Zm-1.89-4-.81-1.72c-.51-1.08-.93-2-1.38-3.11-.45,1.1-.89,2-1.4,3.1l-.82,1.73Z" transform="translate(-535.25 -6.86)"/><path class="cls-3" d="M757.33,326.72l4.59,9.48h-.71l-1.58-3.37h-5.2l-1.6,3.37h-.66l4.58-9.48h.58m-2.7,5.69h4.8l-.88-1.89c-.55-1.15-1-2.12-1.47-3.3H757c-.47,1.18-.93,2.15-1.48,3.3l-.9,1.89m2.86-5.94h-.9l-.07.14L752,336.09l-.18.36H753l.07-.14,1.54-3.23h4.88l1.52,3.23.07.14h1.26l-.17-.36-4.6-9.48-.06-.14ZM755,332.16l.73-1.53c.48-1,.89-1.86,1.3-2.84.41,1,.81,1.87,1.27,2.84l.72,1.53Z" transform="translate(-535.25 -6.86)"/><polygon class="cls-3" points="230.66 329.46 230.66 320.41 226.53 320.41 226.53 319.73 235.74 319.73 235.74 320.41 231.6 320.41 231.6 329.46 230.66 329.46"/><path class="cls-3" d="M770.86,326.72v.43h-4.13v9.05H766v-9.05h-4.13v-.43h9m.25-.25h-9.45v.93h4.13v9.05H767V327.4h4.13v-.93Z" transform="translate(-535.25 -6.86)"/><path class="cls-3" d="M779.83,336.33,778.24,333h-5l-1.61,3.37h-.93l4.69-9.73h.74l4.71,9.73Zm-1.9-4-.8-1.72c-.52-1.08-.94-2-1.39-3.11-.44,1.08-.87,2-1.36,3l-.86,1.8Z" transform="translate(-535.25 -6.86)"/><path class="cls-3" d="M776,326.72l4.59,9.48h-.7l-1.59-3.37h-5.19l-1.61,3.37h-.65l4.57-9.48H776m-2.7,5.69h4.81l-.89-1.89c-.55-1.15-1-2.12-1.46-3.3h-.07c-.48,1.18-.94,2.15-1.49,3.3l-.9,1.89m2.86-5.94h-.9l-.06.14-4.58,9.48-.17.36h1.21l.07-.14,1.53-3.23h4.88l1.52,3.23.07.14H781l-.17-.36-4.59-9.48-.07-.14Zm-2.46,5.69.73-1.53c.47-1,.88-1.86,1.29-2.84.41,1,.82,1.87,1.28,2.84l.71,1.53Z" transform="translate(-535.25 -6.86)"/><path class="cls-3" d="M693.65,346.12a11.53,11.53,0,0,0,4.34,3.47,6,6,0,0,0-.8.94,12.54,12.54,0,0,1-4.1-3.53v4.11h-1.16v-4.06a13,13,0,0,1-4.09,3.47,7.85,7.85,0,0,0-.8-.93,11.49,11.49,0,0,0,4.32-3.47h-4V345h4.55v-1.79h-3.71v-1.08h3.71v-1.85h1.16v1.85h3.8v1.08h-3.8V345h4.62v1.09Z" transform="translate(-535.25 -6.86)"/><path class="cls-3" d="M708.68,347.08a20.76,20.76,0,0,0-1.7-1.53,5.5,5.5,0,0,1-.92,1.21,6,6,0,0,0-.88-.55,10.41,10.41,0,0,0,4.57,3.44,4.32,4.32,0,0,0-.83,1,11.15,11.15,0,0,1-4.09-3.27v3.75h-1.16V347.4a11.55,11.55,0,0,1-4.06,3.22,4.82,4.82,0,0,0-.77-.93,10.83,10.83,0,0,0,4.83-4v-2.8h-4.39v-1.06h4.39v-1.56h1.16v1.56h4.53v1.06h-4.53v2.74a4.32,4.32,0,0,0,.33.5,5.5,5.5,0,0,0,1.61-3l1.06.18a8.84,8.84,0,0,1-.41,1.32c.71.56,1.57,1.24,2,1.7Zm-6.36-3.75a9.42,9.42,0,0,1-.44,1.33,15.32,15.32,0,0,1,1.25,1.16l-.74.78a10.53,10.53,0,0,0-1-1,6.32,6.32,0,0,1-1.43,1.74,5,5,0,0,0-.85-.72,5.89,5.89,0,0,0,2.11-3.49Z" transform="translate(-535.25 -6.86)"/><path class="cls-3" d="M717.71,345.92c.44,2.38,1.24,4,2.26,4,.34,0,.47-.46.55-1.72a2.61,2.61,0,0,0,.91.55c-.18,1.79-.55,2.25-1.52,2.25-1.77,0-2.81-2.11-3.32-5.07h-3.31v3.44l3.09-.82a6,6,0,0,0,.08,1c-3.48,1-4,1.17-4.29,1.37a3.31,3.31,0,0,0-.46-.92.93.93,0,0,0,.46-.86v-7.57a43.9,43.9,0,0,0,7.62-1.09l.57,1a26.69,26.69,0,0,1-3,.57,24.26,24.26,0,0,0,.18,2.8h3.71v1.09Zm-1.26-1.09c-.09-.84-.15-1.73-.17-2.64-1,.11-2,.21-3,.28v2.36Z" transform="translate(-535.25 -6.86)"/><path class="cls-3" d="M733.08,349.71v1H722.56v-1h4.73v-1.25h-3.53v-1h3.53v-.92h-.88v-2.39h-1.32a3.64,3.64,0,0,1-1.8,2.68,4.7,4.7,0,0,0-.72-.76,2.81,2.81,0,0,0,1.48-1.92h-1.33v-1h1.43v-1.43h-1v-1h5.28v1h-1v1.43h1.22v1h-1.22v2.18h1v1.13h3.46v1h-3.46v1.25Zm-6.67-6.54v-1.43h-1.25v1.43Zm3.87,1.75h-1V341h1Zm2.19.61c0,.55-.11.82-.5,1a5.4,5.4,0,0,1-1.79.17,3.4,3.4,0,0,0-.33-1c.6,0,1.18,0,1.35,0s.23-.05.23-.2v-5.1h1Z" transform="translate(-535.25 -6.86)"/><rect class="cls-4" x="909.03" y="11.88" width="24.23" height="24.23" transform="translate(-248.48 -651.18) rotate(45)"/><path class="cls-3" d="M905.73,24,921.15,8.58,922.6,10l-7.71,7.71,1.76,1.77L923,13.16l1.46,1.46L918.11,21l2.61,2.61L913,31.28Z" transform="translate(-535.25 -6.86)"/><polygon class="cls-3" points="385.9 32.57 378.62 25.28 381.32 22.59 386.5 27.77 395.17 19.12 391.74 15.68 388.08 19.32 389.85 21.09 386.31 24.63 382.79 21.11 394.05 9.86 401.33 17.14 385.9 32.57"/><polygon class="cls-4" points="409.06 14.47 409.06 2.1 418.08 2.1 418.08 2.9 410.15 2.9 410.15 7.71 416.83 7.71 416.83 8.49 410.15 8.49 410.15 14.47 409.06 14.47"/><path class="cls-4" d="M953.2,9.08v.55h-7.93V14.7H952v.53h-6.69v6h-.83V9.08h8.76m.25-.25h-9.26V21.46h1.33v-6h6.69v-1h-6.69V9.88h7.93V8.83Z" transform="translate(-535.25 -6.86)"/><path class="cls-4" d="M961.47,21.55c-3.54,0-5.5-1.73-5.5-4.88V9h1.09v7.57c0,3.46,2.4,4.19,4.41,4.19S966,20,966,16.53V9H967v7.71C967,20.92,963.55,21.55,961.47,21.55Z" transform="translate(-535.25 -6.86)"/><path class="cls-4" d="M966.91,9.08v7.59c0,3.75-2.77,4.76-5.44,4.76s-5.37-1-5.37-4.76V9.08h.83v7.45c0,3.33,2.17,4.31,4.54,4.31s4.63-1,4.63-4.31V9.08h.81m.25-.25h-1.31v7.7c0,3.36-2.38,4.06-4.38,4.06s-4.29-.7-4.29-4.06V8.83h-1.33v7.84c0,3.23,2,5,5.62,5,2.13,0,5.69-.66,5.69-5V8.83Z" transform="translate(-535.25 -6.86)"/><polygon class="cls-4" points="439.99 14.47 439.99 2.9 434.71 2.9 434.71 2.1 446.41 2.1 446.41 2.9 441.13 2.9 441.13 14.47 439.99 14.47"/><path class="cls-4" d="M981.53,9.08v.55h-5.28V21.21h-.88V9.63h-5.29V9.08h11.45m.25-.25H969.83V9.88h5.29V21.46h1.38V9.88h5.28V8.83Z" transform="translate(-535.25 -6.86)"/><path class="cls-4" d="M990.1,21.55c-3.55,0-5.5-1.73-5.5-4.88V9h1.09v7.57c0,3.46,2.4,4.19,4.41,4.19s4.5-.73,4.5-4.19V9h1.07v7.71C995.67,20.92,992.18,21.55,990.1,21.55Z" transform="translate(-535.25 -6.86)"/><path class="cls-4" d="M995.54,9.08v7.59c0,3.75-2.77,4.76-5.44,4.76s-5.38-1-5.38-4.76V9.08h.84v7.45c0,3.33,2.17,4.31,4.54,4.31s4.63-1,4.63-4.31V9.08h.81m.25-.25h-1.31v7.7c0,3.36-2.38,4.06-4.38,4.06s-4.29-.7-4.29-4.06V8.83h-1.34v7.84c0,3.23,2,5,5.63,5,2.13,0,5.69-.66,5.69-5V8.83Z" transform="translate(-535.25 -6.86)"/><path class="cls-4" d="M1009.49,21.33l-4.63-5.71h-3.45v5.71h-1.09V9H1005c3.59,0,5.41,1.09,5.41,3.25,0,1.91-1.51,3.1-4.26,3.36l4.64,5.76Zm-4.79-6.49c3,0,4.54-.89,4.54-2.63s-1.4-2.45-4.54-2.45h-3.29v5.08Z" transform="translate(-535.25 -6.86)"/><path class="cls-4" d="M1005,9.08c3.23,0,5.28.89,5.28,3.13,0,1.95-1.67,3-4.38,3.25l4.63,5.75h-1l-4.63-5.71h-3.64v5.71h-.83V9.08H1005M1001.28,15h3.41c3,0,4.68-.88,4.68-2.75s-1.67-2.58-4.68-2.58h-3.41V15M1005,8.83h-4.79V21.46h1.33V15.75h3.27l4.55,5.62.08.09H1011l-.33-.41-4.33-5.38c2.64-.32,4.14-1.56,4.14-3.46,0-2.24-1.86-3.38-5.53-3.38Zm-3.46,1.05h3.16c3.06,0,4.43.72,4.43,2.33s-1.49,2.5-4.43,2.5h-3.16V9.88Z" transform="translate(-535.25 -6.86)"/><path class="cls-4" d="M1019.58,21.55c-4.2,0-7-2.59-7-6.44s2.86-6.37,7.28-6.37a6.83,6.83,0,0,1,4.46,1.47l.12.09-.72.58-.07-.06a5.71,5.71,0,0,0-3.79-1.24c-3.79,0-6.15,2.12-6.15,5.53s2.29,5.61,6,5.61a7,7,0,0,0,3.74-.91V16h-4v-.8h5.17v4.91l0,0A8,8,0,0,1,1019.58,21.55Z" transform="translate(-535.25 -6.86)"/><path class="cls-4" d="M1019.83,8.87a6.68,6.68,0,0,1,4.38,1.43l-.52.42a5.82,5.82,0,0,0-3.86-1.27c-3.88,0-6.28,2.19-6.28,5.66s2.29,5.73,6.1,5.73a7,7,0,0,0,3.86-1v-4h-4v-.55h4.92v4.72a7.79,7.79,0,0,1-4.81,1.36c-4.15,0-6.91-2.49-6.91-6.32s2.85-6.24,7.16-6.24m0-.25c-4.5,0-7.41,2.55-7.41,6.49s2.88,6.57,7.16,6.57a8.06,8.06,0,0,0,5-1.41l.09-.08V15.1h-5.42v1h4v3.59a6.87,6.87,0,0,1-3.61.85c-3.61,0-5.85-2.1-5.85-5.48s2.31-5.41,6-5.41a5.65,5.65,0,0,1,3.71,1.21l.15.13.16-.12.52-.42.24-.2-.24-.19a6.93,6.93,0,0,0-4.54-1.49Z" transform="translate(-535.25 -6.86)"/><path class="cls-4" d="M1037.94,21.33l-2-4.31h-6.48l-2.06,4.31h-1.11l6-12.37h.9l6,12.37Zm-2.4-5.09-1-2.24c-.66-1.37-1.22-2.59-1.81-4.06-.58,1.43-1.15,2.63-1.81,4l-1.09,2.29Z" transform="translate(-535.25 -6.86)"/><path class="cls-4" d="M1033.05,9.08l5.87,12.13h-.9l-2-4.31h-6.64l-2.06,4.31h-.83l5.85-12.13h.74m-3.46,7.29h6.15l-1.13-2.43c-.7-1.47-1.27-2.7-1.88-4.22h-.09c-.6,1.52-1.19,2.75-1.89,4.22l-1.16,2.43m3.62-7.54h-1.06l-.07.15-5.85,12.12-.17.36h1.39l.07-.14,2-4.17h6.33l2,4.17.07.14h1.46l-.17-.36L1033.28,9l-.07-.15ZM1030,16.12l1-2.07c.63-1.32,1.17-2.46,1.72-3.78.55,1.34,1.08,2.5,1.69,3.78l1,2.07Z" transform="translate(-535.25 -6.86)"/><polygon class="cls-4" points="508.81 14.47 508.81 2.9 503.53 2.9 503.53 2.1 515.23 2.1 515.23 2.9 509.94 2.9 509.94 14.47 508.81 14.47"/><path class="cls-4" d="M1050.35,9.08v.55h-5.28V21.21h-.88V9.63h-5.29V9.08h11.45m.25-.25h-11.95V9.88h5.29V21.46h1.38V9.88h5.28V8.83Z" transform="translate(-535.25 -6.86)"/><path class="cls-4" d="M1061.84,21.33l-2-4.31h-6.48l-2,4.31h-1.12l6-12.37h.9l6,12.37Zm-2.39-5.09-1-2.24c-.65-1.37-1.21-2.6-1.81-4.06-.57,1.43-1.14,2.63-1.8,4l-1.09,2.29Z" transform="translate(-535.25 -6.86)"/><path class="cls-4" d="M1057,9.08l5.87,12.13h-.91l-2-4.31h-6.64l-2,4.31h-.84l5.85-12.13h.75m-3.46,7.29h6.14l-1.13-2.43c-.7-1.47-1.26-2.7-1.87-4.22h-.09c-.61,1.52-1.2,2.75-1.9,4.22l-1.15,2.43m3.61-7.54h-1.06L1056,9l-5.85,12.12-.18.36h1.39l.07-.14,2-4.17h6.32l2,4.17.07.14h1.46l-.18-.36L1057.18,9l-.07-.15Zm-3.21,7.29,1-2.07c.63-1.32,1.17-2.46,1.71-3.78.56,1.34,1.09,2.5,1.7,3.78l1,2.07Z" transform="translate(-535.25 -6.86)"/><path class="cls-4" d="M951.62,33.89a14.69,14.69,0,0,0,5.55,4.44,7.35,7.35,0,0,0-1,1.2A16.2,16.2,0,0,1,950.9,35v5.25h-1.48V35.08a16.4,16.4,0,0,1-5.24,4.44,8.8,8.8,0,0,0-1-1.19,14.56,14.56,0,0,0,5.52-4.44H943.6V32.5h5.82V30.21h-4.74V28.83h4.74V26.47h1.48v2.36h4.86v1.38H950.9V32.5h5.91v1.39Z" transform="translate(-535.25 -6.86)"/><path class="cls-4" d="M970.83,35.12a27.75,27.75,0,0,0-2.16-2,6.8,6.8,0,0,1-1.18,1.55,7.06,7.06,0,0,0-1.13-.7,13.34,13.34,0,0,0,5.84,4.39,5.6,5.6,0,0,0-1.05,1.27,14.51,14.51,0,0,1-5.24-4.19v4.79h-1.47V35.53a15,15,0,0,1-5.2,4.12,5.91,5.91,0,0,0-1-1.19,13.85,13.85,0,0,0,6.19-5.07V29.81h-5.62V28.45h5.62v-2h1.47v2h5.8v1.36h-5.8v3.5c.14.23.27.44.42.65a7,7,0,0,0,2.06-3.9l1.36.24a10.09,10.09,0,0,1-.53,1.69,32.2,32.2,0,0,1,2.61,2.17Zm-8.12-4.8a12.54,12.54,0,0,1-.56,1.7,20.53,20.53,0,0,1,1.59,1.49l-.94,1a14,14,0,0,0-1.24-1.28,7.73,7.73,0,0,1-1.82,2.23,7.48,7.48,0,0,0-1.08-.92,7.56,7.56,0,0,0,2.69-4.47Z" transform="translate(-535.25 -6.86)"/><path class="cls-4" d="M982.39,33.63c.55,3.06,1.58,5.1,2.89,5.1.43,0,.6-.58.71-2.19a3.13,3.13,0,0,0,1.15.7c-.22,2.29-.7,2.88-1.94,2.88-2.27,0-3.59-2.7-4.24-6.49h-4.24V38l3.95-1a7.1,7.1,0,0,0,.11,1.28c-4.46,1.28-5.1,1.49-5.49,1.74a4.29,4.29,0,0,0-.59-1.17,1.17,1.17,0,0,0,.59-1.1V28.06a55.82,55.82,0,0,0,9.75-1.4l.72,1.27a34.15,34.15,0,0,1-3.79.73,33.11,33.11,0,0,0,.22,3.59h4.74v1.38Zm-1.61-1.38c-.12-1.09-.2-2.22-.23-3.39-1.28.15-2.59.27-3.83.36v3Z" transform="translate(-535.25 -6.86)"/><path class="cls-4" d="M1002,38.48v1.29H988.59V38.48h6v-1.6h-4.52V35.6h4.52V34.43h-1.13V31.37h-1.69a4.62,4.62,0,0,1-2.3,3.43,6,6,0,0,0-.92-1,3.62,3.62,0,0,0,1.9-2.46h-1.7V30.12h1.82V28.29h-1.31V27.05h6.74v1.24h-1.23v1.83h1.56v1.25h-1.56v2.79h1.26V35.6h4.43v1.28h-4.43v1.6Zm-8.53-8.36V28.29h-1.6v1.83Zm5,2.23h-1.28v-5h1.28Zm2.8.78c0,.71-.14,1.06-.63,1.27a7,7,0,0,1-2.29.22,5,5,0,0,0-.42-1.26c.76,0,1.5,0,1.71,0s.3-.06.3-.25V26.6h1.33Z" transform="translate(-535.25 -6.86)"/><rect class="cls-3" x="909.03" y="82.69" width="24.23" height="24.23" transform="translate(-198.41 -630.44) rotate(45)"/><path class="cls-4" d="M905.73,94.81l15.42-15.42,1.45,1.44-7.71,7.72,1.76,1.76L923,84l1.46,1.46-6.35,6.34,2.61,2.61L913,102.09Z" transform="translate(-535.25 -6.86)"/><polygon class="cls-4" points="385.9 103.38 378.62 96.09 381.32 93.39 386.5 98.58 395.17 89.93 391.74 86.49 388.08 90.13 389.85 91.89 386.31 95.44 382.79 91.92 394.05 80.67 401.33 87.95 385.9 103.38"/><polygon class="cls-3" points="409.06 85.28 409.06 72.9 418.08 72.9 418.08 73.7 410.15 73.7 410.15 78.52 416.83 78.52 416.83 79.3 410.15 79.3 410.15 85.28 409.06 85.28"/><path class="cls-3" d="M953.2,79.89v.55h-7.93V85.5H952V86h-6.69v6h-.83V79.89h8.76m.25-.25h-9.26V92.27h1.33v-6h6.69v-1h-6.69V80.69h7.93v-1Z" transform="translate(-535.25 -6.86)"/><path class="cls-3" d="M961.47,92.36c-3.54,0-5.5-1.74-5.5-4.89v-7.7h1.09v7.57c0,3.46,2.4,4.18,4.41,4.18S966,90.8,966,87.34V79.77H967v7.7C967,91.72,963.55,92.36,961.47,92.36Z" transform="translate(-535.25 -6.86)"/><path class="cls-3" d="M966.91,79.89v7.58c0,3.76-2.77,4.76-5.44,4.76s-5.37-1-5.37-4.76V79.89h.83v7.45c0,3.32,2.17,4.31,4.54,4.31s4.63-1,4.63-4.31V79.89h.81m.25-.25h-1.31v7.7c0,3.36-2.38,4.06-4.38,4.06s-4.29-.7-4.29-4.06v-7.7h-1.33v7.83c0,3.23,2,5,5.62,5,2.13,0,5.69-.65,5.69-5V79.64Z" transform="translate(-535.25 -6.86)"/><polygon class="cls-3" points="439.99 85.28 439.99 73.7 434.71 73.7 434.71 72.9 446.41 72.9 446.41 73.7 441.13 73.7 441.13 85.28 439.99 85.28"/><path class="cls-3" d="M981.53,79.89v.55h-5.28V92h-.88V80.44h-5.29v-.55h11.45m.25-.25H969.83v1h5.29V92.27h1.38V80.69h5.28v-1Z" transform="translate(-535.25 -6.86)"/><path class="cls-3" d="M990.1,92.36c-3.55,0-5.5-1.74-5.5-4.89v-7.7h1.09v7.57c0,3.46,2.4,4.18,4.41,4.18s4.5-.72,4.5-4.18V79.77h1.07v7.7C995.67,91.72,992.18,92.36,990.1,92.36Z" transform="translate(-535.25 -6.86)"/><path class="cls-3" d="M995.54,79.89v7.58c0,3.76-2.77,4.76-5.44,4.76s-5.38-1-5.38-4.76V79.89h.84v7.45c0,3.32,2.17,4.31,4.54,4.31s4.63-1,4.63-4.31V79.89h.81m.25-.25h-1.31v7.7c0,3.36-2.38,4.06-4.38,4.06s-4.29-.7-4.29-4.06v-7.7h-1.34v7.83c0,3.23,2,5,5.63,5,2.13,0,5.69-.65,5.69-5V79.64Z" transform="translate(-535.25 -6.86)"/><path class="cls-3" d="M1009.49,92.14l-4.63-5.71h-3.45v5.71h-1.09V79.77H1005c3.59,0,5.41,1.09,5.41,3.25,0,1.91-1.51,3.1-4.26,3.36l4.64,5.76Zm-4.79-6.49c3,0,4.54-.89,4.54-2.63s-1.4-2.45-4.54-2.45h-3.29v5.08Z" transform="translate(-535.25 -6.86)"/><path class="cls-3" d="M1005,79.89c3.23,0,5.28.89,5.28,3.13,0,2-1.67,3-4.38,3.25l4.63,5.75h-1l-4.63-5.71h-3.64V92h-.83V79.89H1005m-3.71,5.88h3.41c3,0,4.68-.88,4.68-2.75s-1.67-2.58-4.68-2.58h-3.41v5.33m3.71-6.13h-4.79V92.27h1.33V86.56h3.27l4.55,5.61.08.1H1011l-.33-.41-4.33-5.38c2.64-.32,4.14-1.56,4.14-3.46,0-2.24-1.86-3.38-5.53-3.38Zm-3.46,1h3.16c3.06,0,4.43.72,4.43,2.33s-1.49,2.5-4.43,2.5h-3.16V80.69Z" transform="translate(-535.25 -6.86)"/><path class="cls-3" d="M1019.58,92.36c-4.2,0-7-2.59-7-6.44s2.86-6.37,7.28-6.37a6.88,6.88,0,0,1,4.46,1.46l.12.1-.72.58-.07-.06a5.72,5.72,0,0,0-3.79-1.25c-3.79,0-6.15,2.13-6.15,5.54s2.29,5.6,6,5.6a7,7,0,0,0,3.74-.9V86.83h-4V86h5.17v4.91l0,0A8,8,0,0,1,1019.58,92.36Z" transform="translate(-535.25 -6.86)"/><path class="cls-3" d="M1019.83,79.68a6.68,6.68,0,0,1,4.38,1.43l-.52.42a5.77,5.77,0,0,0-3.86-1.27c-3.88,0-6.28,2.19-6.28,5.66s2.29,5.73,6.1,5.73a7,7,0,0,0,3.86-1v-4h-4v-.55h4.92v4.72a7.79,7.79,0,0,1-4.81,1.35c-4.15,0-6.91-2.48-6.91-6.31s2.85-6.24,7.16-6.24m0-.25c-4.5,0-7.41,2.55-7.41,6.49s2.88,6.56,7.16,6.56a8.13,8.13,0,0,0,5-1.4l.09-.08V85.91h-5.42v1h4v3.59a6.87,6.87,0,0,1-3.61.85c-3.61,0-5.85-2.1-5.85-5.48s2.31-5.41,6-5.41a5.65,5.65,0,0,1,3.71,1.21l.15.13.16-.13.52-.41.24-.2-.24-.19a6.93,6.93,0,0,0-4.54-1.49Z" transform="translate(-535.25 -6.86)"/><path class="cls-3" d="M1037.94,92.14l-2-4.31h-6.48l-2.06,4.31h-1.11l6-12.37h.9l6,12.37Zm-2.4-5.09-1-2.25c-.66-1.36-1.22-2.58-1.81-4-.58,1.43-1.15,2.63-1.81,4l-1.09,2.29Z" transform="translate(-535.25 -6.86)"/><path class="cls-3" d="M1033.05,79.89,1038.92,92h-.9l-2-4.31h-6.64L1027.29,92h-.83l5.85-12.13h.74m-3.46,7.28h6.15l-1.13-2.42c-.7-1.47-1.27-2.7-1.88-4.22h-.09c-.6,1.52-1.19,2.75-1.89,4.22l-1.16,2.42m3.62-7.53h-1.06l-.07.14-5.85,12.13-.17.36h1.39l.07-.15,2-4.16h6.33l2,4.16.07.15h1.46l-.17-.36-5.87-12.13-.07-.14ZM1030,86.92l1-2.06c.63-1.32,1.17-2.46,1.72-3.78.55,1.34,1.08,2.5,1.69,3.78l1,2.06Z" transform="translate(-535.25 -6.86)"/><polygon class="cls-3" points="508.81 85.28 508.81 73.7 503.53 73.7 503.53 72.9 515.23 72.9 515.23 73.7 509.94 73.7 509.94 85.28 508.81 85.28"/><path class="cls-3" d="M1050.35,79.89v.55h-5.28V92h-.88V80.44h-5.29v-.55h11.45m.25-.25h-11.95v1h5.29V92.27h1.38V80.69h5.28v-1Z" transform="translate(-535.25 -6.86)"/><path class="cls-3" d="M1061.84,92.14l-2-4.31h-6.48l-2,4.31h-1.12l6-12.37h.9l6,12.37Zm-2.39-5.09-1-2.25c-.65-1.37-1.21-2.59-1.81-4-.57,1.43-1.14,2.63-1.8,4l-1.09,2.29Z" transform="translate(-535.25 -6.86)"/><path class="cls-3" d="M1057,79.89,1062.83,92h-.91l-2-4.31h-6.64l-2,4.31h-.84l5.85-12.13h.75m-3.46,7.28h6.14l-1.13-2.42c-.7-1.47-1.26-2.7-1.87-4.22h-.09c-.61,1.52-1.2,2.75-1.9,4.22l-1.15,2.42m3.61-7.53h-1.06l-.06.14-5.85,12.13-.18.36h1.39l.07-.15,2-4.16h6.32l2,4.16.07.15h1.46l-.18-.36-5.87-12.13-.07-.14Zm-3.21,7.28,1-2.06c.63-1.32,1.17-2.46,1.71-3.78.56,1.34,1.09,2.5,1.7,3.78l1,2.06Z" transform="translate(-535.25 -6.86)"/><path class="cls-3" d="M951.62,104.7a14.57,14.57,0,0,0,5.55,4.43,7.87,7.87,0,0,0-1,1.21,16.11,16.11,0,0,1-5.25-4.52v5.26h-1.48v-5.2a16.28,16.28,0,0,1-5.24,4.44,10.21,10.21,0,0,0-1-1.19,14.44,14.44,0,0,0,5.52-4.43H943.6v-1.39h5.82V101h-4.74V99.64h4.74V97.28h1.48v2.36h4.86V101H950.9v2.29h5.91v1.39Z" transform="translate(-535.25 -6.86)"/><path class="cls-3" d="M970.83,105.93a25.87,25.87,0,0,0-2.16-2,7,7,0,0,1-1.18,1.55,7.06,7.06,0,0,0-1.13-.7,13.34,13.34,0,0,0,5.84,4.39,5.77,5.77,0,0,0-1.05,1.26,14.38,14.38,0,0,1-5.24-4.18v4.79h-1.47v-4.74a15,15,0,0,1-5.2,4.12,5.91,5.91,0,0,0-1-1.19,13.85,13.85,0,0,0,6.19-5.07v-3.58h-5.62V99.26h5.62v-2h1.47v2h5.8v1.36h-5.8v3.5c.14.23.27.44.42.65a7,7,0,0,0,2.06-3.9l1.36.24a10.09,10.09,0,0,1-.53,1.69,32.2,32.2,0,0,1,2.61,2.17Zm-8.12-4.8a12.54,12.54,0,0,1-.56,1.7,20.53,20.53,0,0,1,1.59,1.49l-.94,1a14,14,0,0,0-1.24-1.28,7.73,7.73,0,0,1-1.82,2.23,6.9,6.9,0,0,0-1.08-.92,7.59,7.59,0,0,0,2.69-4.47Z" transform="translate(-535.25 -6.86)"/><path class="cls-3" d="M982.39,104.44c.55,3,1.58,5.1,2.89,5.1.43,0,.6-.59.71-2.2a3.16,3.16,0,0,0,1.15.71c-.22,2.29-.7,2.87-1.94,2.87-2.27,0-3.59-2.69-4.24-6.48h-4.24v4.41l3.95-1.06a7,7,0,0,0,.11,1.28c-4.46,1.28-5.1,1.49-5.49,1.75a4.29,4.29,0,0,0-.59-1.17,1.17,1.17,0,0,0,.59-1.1V98.87a55.82,55.82,0,0,0,9.75-1.4l.72,1.27a34.15,34.15,0,0,1-3.79.73,32.76,32.76,0,0,0,.22,3.58h4.74v1.39Zm-1.61-1.39c-.12-1.08-.2-2.21-.23-3.38-1.28.15-2.59.27-3.83.36v3Z" transform="translate(-535.25 -6.86)"/><path class="cls-3" d="M1002,109.29v1.29H988.59v-1.29h6v-1.6h-4.52v-1.28h4.52v-1.17h-1.13v-3.06h-1.69a4.62,4.62,0,0,1-2.3,3.43,6.52,6.52,0,0,0-.92-1,3.58,3.58,0,0,0,1.9-2.45h-1.7v-1.25h1.82V99.1h-1.31V97.86h6.74V99.1h-1.23v1.83h1.56v1.25h-1.56V105h1.26v1.44h4.43v1.28h-4.43v1.6Zm-8.53-8.36V99.1h-1.6v1.83Zm5,2.23h-1.28v-5h1.28Zm2.8.78c0,.71-.14,1.06-.63,1.27a7,7,0,0,1-2.29.22,4.92,4.92,0,0,0-.42-1.26c.76,0,1.5,0,1.71,0s.3-.06.3-.25V97.41h1.33Z" transform="translate(-535.25 -6.86)"/><rect class="cls-5" x="362.85" y="116.26" width="169.5" height="48"/><rect class="cls-3" x="909.03" y="135.01" width="24.23" height="24.23" transform="translate(-161.42 -615.12) rotate(45)"/><path class="cls-4" d="M905.73,147.13l15.42-15.43,1.45,1.45-7.71,7.71,1.76,1.77,6.35-6.34,1.46,1.45-6.35,6.35,2.61,2.61L913,154.41Z" transform="translate(-535.25 -6.86)"/><polygon class="cls-4" points="385.9 155.69 378.62 148.41 381.32 145.71 386.5 150.9 395.17 142.25 391.74 138.81 388.08 142.45 389.85 144.21 386.31 147.75 382.79 144.24 394.05 132.99 401.33 140.27 385.9 155.69"/><polygon class="cls-3" points="409.06 137.6 409.06 125.22 418.08 125.22 418.08 126.02 410.15 126.02 410.15 130.84 416.83 130.84 416.83 131.62 410.15 131.62 410.15 137.6 409.06 137.6"/><path class="cls-3" d="M953.2,132.21v.55h-7.93v5.06H952v.54h-6.69v6h-.83V132.21h8.76m.25-.25h-9.26v12.63h1.33v-6h6.69v-1h-6.69V133h7.93v-1Z" transform="translate(-535.25 -6.86)"/><path class="cls-3" d="M961.47,144.68c-3.54,0-5.5-1.74-5.5-4.89v-7.7h1.09v7.57c0,3.46,2.4,4.18,4.41,4.18s4.51-.72,4.51-4.18v-7.57H967v7.7C967,144,963.55,144.68,961.47,144.68Z" transform="translate(-535.25 -6.86)"/><path class="cls-3" d="M966.91,132.21v7.58c0,3.76-2.77,4.76-5.44,4.76s-5.37-1-5.37-4.76v-7.58h.83v7.45c0,3.32,2.17,4.31,4.54,4.31s4.63-1,4.63-4.31v-7.45h.81m.25-.25h-1.31v7.7c0,3.35-2.38,4.06-4.38,4.06s-4.29-.71-4.29-4.06V132h-1.33v7.83c0,3.23,2,5,5.62,5,2.13,0,5.69-.65,5.69-5V132Z" transform="translate(-535.25 -6.86)"/><polygon class="cls-3" points="439.99 137.6 439.99 126.02 434.71 126.02 434.71 125.22 446.41 125.22 446.41 126.02 441.13 126.02 441.13 137.6 439.99 137.6"/><path class="cls-3" d="M981.53,132.21v.55h-5.28v11.58h-.88V132.76h-5.29v-.55h11.45m.25-.25H969.83v1h5.29v11.58h1.38V133h5.28v-1Z" transform="translate(-535.25 -6.86)"/><path class="cls-3" d="M990.1,144.68c-3.55,0-5.5-1.74-5.5-4.89v-7.7h1.09v7.57c0,3.46,2.4,4.18,4.41,4.18s4.5-.72,4.5-4.18v-7.57h1.07v7.7C995.67,144,992.18,144.68,990.1,144.68Z" transform="translate(-535.25 -6.86)"/><path class="cls-3" d="M995.54,132.21v7.58c0,3.76-2.77,4.76-5.44,4.76s-5.38-1-5.38-4.76v-7.58h.84v7.45c0,3.32,2.17,4.31,4.54,4.31s4.63-1,4.63-4.31v-7.45h.81m.25-.25h-1.31v7.7c0,3.35-2.38,4.06-4.38,4.06s-4.29-.71-4.29-4.06V132h-1.34v7.83c0,3.23,2,5,5.63,5,2.13,0,5.69-.65,5.69-5V132Z" transform="translate(-535.25 -6.86)"/><path class="cls-3" d="M1009.49,144.46l-4.63-5.71h-3.45v5.71h-1.09V132.09H1005c3.59,0,5.41,1.09,5.41,3.24,0,1.92-1.51,3.11-4.26,3.37l4.64,5.76ZM1004.7,138c3,0,4.54-.89,4.54-2.64s-1.4-2.44-4.54-2.44h-3.29V138Z" transform="translate(-535.25 -6.86)"/><path class="cls-3" d="M1005,132.21c3.23,0,5.28.89,5.28,3.12,0,2-1.67,3.06-4.38,3.26l4.63,5.75h-1l-4.63-5.72h-3.64v5.72h-.83V132.21H1005m-3.71,5.88h3.41c3,0,4.68-.88,4.68-2.76s-1.67-2.57-4.68-2.57h-3.41v5.33M1005,132h-4.79v12.63h1.33v-5.72h3.27l4.55,5.62.08.1H1011l-.33-.41-4.33-5.38c2.64-.32,4.14-1.56,4.14-3.47,0-2.23-1.86-3.37-5.53-3.37Zm-3.46,1h3.16c3.06,0,4.43.72,4.43,2.32s-1.49,2.51-4.43,2.51h-3.16V133Z" transform="translate(-535.25 -6.86)"/><path class="cls-3" d="M1019.58,144.68c-4.2,0-7-2.59-7-6.44s2.86-6.37,7.28-6.37a6.88,6.88,0,0,1,4.46,1.46l.12.1-.72.58-.07-.06a5.72,5.72,0,0,0-3.79-1.25c-3.79,0-6.15,2.13-6.15,5.54s2.29,5.6,6,5.6a7,7,0,0,0,3.74-.9v-3.79h-4v-.8h5.17v4.91l0,0A8,8,0,0,1,1019.58,144.68Z" transform="translate(-535.25 -6.86)"/><path class="cls-3" d="M1019.83,132a6.68,6.68,0,0,1,4.38,1.44l-.52.42a5.77,5.77,0,0,0-3.86-1.27c-3.88,0-6.28,2.19-6.28,5.66s2.29,5.73,6.1,5.73a7,7,0,0,0,3.86-1v-4h-4v-.56h4.92v4.73a7.79,7.79,0,0,1-4.81,1.35c-4.15,0-6.91-2.49-6.91-6.31s2.85-6.25,7.16-6.25m0-.25c-4.5,0-7.41,2.55-7.41,6.5s2.88,6.56,7.16,6.56a8.13,8.13,0,0,0,5-1.4l.09-.08v-5.1h-5.42v1.06h4v3.59a6.87,6.87,0,0,1-3.61.85c-3.61,0-5.85-2.1-5.85-5.48s2.31-5.41,6-5.41a5.65,5.65,0,0,1,3.71,1.21l.15.13.16-.13.52-.41.24-.2-.24-.19a6.94,6.94,0,0,0-4.54-1.5Z" transform="translate(-535.25 -6.86)"/><path class="cls-3" d="M1037.94,144.46l-2-4.31h-6.48l-2.06,4.31h-1.11l6-12.37h.9l6,12.37Zm-2.4-5.09-1-2.25c-.66-1.36-1.22-2.59-1.81-4.05-.58,1.43-1.15,2.63-1.81,4l-1.09,2.29Z" transform="translate(-535.25 -6.86)"/><path class="cls-3" d="M1033.05,132.21l5.87,12.13h-.9l-2-4.31h-6.64l-2.06,4.31h-.83l5.85-12.13h.74m-3.46,7.28h6.15l-1.13-2.42c-.7-1.47-1.27-2.7-1.88-4.22h-.09c-.6,1.52-1.19,2.75-1.89,4.22l-1.16,2.42m3.62-7.53h-1.06l-.07.14-5.85,12.13-.17.36h1.39l.07-.15,2-4.16h6.33l2,4.16.07.15h1.46l-.17-.36-5.87-12.13-.07-.14Zm-3.22,7.28,1-2.06c.63-1.32,1.17-2.46,1.72-3.78.55,1.34,1.08,2.49,1.69,3.78l1,2.06Z" transform="translate(-535.25 -6.86)"/><polygon class="cls-3" points="508.81 137.6 508.81 126.02 503.53 126.02 503.53 125.22 515.23 125.22 515.23 126.02 509.94 126.02 509.94 137.6 508.81 137.6"/><path class="cls-3" d="M1050.35,132.21v.55h-5.28v11.58h-.88V132.76h-5.29v-.55h11.45m.25-.25h-11.95v1h5.29v11.58h1.38V133h5.28v-1Z" transform="translate(-535.25 -6.86)"/><path class="cls-3" d="M1061.84,144.46l-2-4.31h-6.48l-2,4.31h-1.12l6-12.37h.9l6,12.37Zm-2.39-5.09-1-2.25c-.65-1.37-1.21-2.59-1.81-4.05-.57,1.43-1.14,2.63-1.8,4l-1.09,2.29Z" transform="translate(-535.25 -6.86)"/><path class="cls-3" d="M1057,132.21l5.87,12.13h-.91l-2-4.31h-6.64l-2,4.31h-.84l5.85-12.13h.75m-3.46,7.28h6.14l-1.13-2.42c-.7-1.47-1.26-2.7-1.87-4.22h-.09c-.61,1.52-1.2,2.75-1.9,4.22l-1.15,2.42m3.61-7.53h-1.06l-.06.14-5.85,12.13-.18.36h1.39l.07-.15,2-4.16h6.32l2,4.16.07.15h1.46l-.18-.36-5.87-12.13-.07-.14Zm-3.21,7.28,1-2.06c.63-1.32,1.17-2.46,1.71-3.78.56,1.34,1.09,2.49,1.7,3.78l1,2.06Z" transform="translate(-535.25 -6.86)"/><path class="cls-3" d="M951.62,157a14.5,14.5,0,0,0,5.55,4.44,7.87,7.87,0,0,0-1,1.21,16.11,16.11,0,0,1-5.25-4.52v5.26h-1.48v-5.2a16.28,16.28,0,0,1-5.24,4.44,9.45,9.45,0,0,0-1-1.19,14.37,14.37,0,0,0,5.52-4.44H943.6v-1.38h5.82v-2.29h-4.74V152h4.74v-2.37h1.48V152h4.86v1.38H950.9v2.29h5.91V157Z" transform="translate(-535.25 -6.86)"/><path class="cls-3" d="M970.83,158.25a25.87,25.87,0,0,0-2.16-2,7,7,0,0,1-1.18,1.55,7.86,7.86,0,0,0-1.13-.71,13.28,13.28,0,0,0,5.84,4.4,5.77,5.77,0,0,0-1.05,1.26,14.38,14.38,0,0,1-5.24-4.18v4.79h-1.47v-4.75a15,15,0,0,1-5.2,4.13,5.91,5.91,0,0,0-1-1.19,13.92,13.92,0,0,0,6.19-5.07v-3.58h-5.62v-1.36h5.62v-2h1.47v2h5.8v1.36h-5.8v3.5c.14.23.27.44.42.65a7,7,0,0,0,2.06-3.9l1.36.24a10.09,10.09,0,0,1-.53,1.69,32.2,32.2,0,0,1,2.61,2.17Zm-8.12-4.8a12.54,12.54,0,0,1-.56,1.7,20.53,20.53,0,0,1,1.59,1.49l-.94,1a14,14,0,0,0-1.24-1.28,7.73,7.73,0,0,1-1.82,2.23,6.9,6.9,0,0,0-1.08-.92,7.59,7.59,0,0,0,2.69-4.47Z" transform="translate(-535.25 -6.86)"/><path class="cls-3" d="M982.39,156.76c.55,3.05,1.58,5.1,2.89,5.1.43,0,.6-.59.71-2.2a3.16,3.16,0,0,0,1.15.71c-.22,2.29-.7,2.87-1.94,2.87-2.27,0-3.59-2.69-4.24-6.48h-4.24v4.41l3.95-1.06a7,7,0,0,0,.11,1.28c-4.46,1.28-5.1,1.49-5.49,1.75a4.29,4.29,0,0,0-.59-1.17,1.17,1.17,0,0,0,.59-1.1v-9.68a55.82,55.82,0,0,0,9.75-1.4l.72,1.26a31.88,31.88,0,0,1-3.79.74,32.76,32.76,0,0,0,.22,3.58h4.74v1.39Zm-1.61-1.39c-.12-1.08-.2-2.21-.23-3.38-1.28.15-2.59.27-3.83.36v3Z" transform="translate(-535.25 -6.86)"/><path class="cls-3" d="M1002,161.6v1.3H988.59v-1.3h6V160h-4.52v-1.28h4.52v-1.17h-1.13V154.5h-1.69a4.63,4.63,0,0,1-2.3,3.43,6.52,6.52,0,0,0-.92-1,3.58,3.58,0,0,0,1.9-2.45h-1.7v-1.25h1.82v-1.83h-1.31v-1.24h6.74v1.24h-1.23v1.83h1.56v1.25h-1.56v2.79h1.26v1.44h4.43V160h-4.43v1.59Zm-8.53-8.35v-1.83h-1.6v1.83Zm5,2.23h-1.28v-5h1.28Zm2.8.78c0,.71-.14,1.06-.63,1.27a7,7,0,0,1-2.29.22,4.92,4.92,0,0,0-.42-1.26c.76,0,1.5,0,1.71,0s.3-.06.3-.25v-6.52h1.33Z" transform="translate(-535.25 -6.86)"/><text class="cls-6" transform="translate(0 182.1)">未來氏型</text></svg>