<svg id="圖層_1" data-name="圖層 1" xmlns="http://www.w3.org/2000/svg" viewBox="0 0 169.5 48"><defs><style>.cls-1{fill:#fff;}.cls-2{fill:#3e3a39;}</style></defs><title>logo_20200616</title><rect class="cls-1" x="10.93" y="11.88" width="24.23" height="24.23" transform="translate(23.72 -9.27) rotate(45)"/><path class="cls-2" d="M7.62,24,23.05,8.58,24.49,10l-7.71,7.71,1.77,1.77,6.35-6.35,1.46,1.46L20,21l2.61,2.61-7.71,7.71Z"/><polygon class="cls-2" points="23.05 39.43 15.77 32.15 18.47 29.45 23.65 34.63 32.32 25.98 28.89 22.55 25.23 26.18 26.99 27.95 23.45 31.49 19.94 27.98 31.19 16.73 38.48 24.01 23.05 39.43"/><polygon class="cls-1" points="46.21 21.33 46.21 8.96 55.22 8.96 55.22 9.76 47.3 9.76 47.3 14.57 53.98 14.57 53.98 15.36 47.3 15.36 47.3 21.33 46.21 21.33"/><path class="cls-1" d="M55.1,9.08v.55H47.17V14.7h6.69v.53H47.17v6h-.83V9.08H55.1m.25-.25H46.09V21.46h1.33v-6h6.69v-1H47.42V9.88h7.93V8.83Z"/><path class="cls-1" d="M63.37,21.55c-3.55,0-5.5-1.73-5.5-4.88V9H59v7.57c0,3.46,2.4,4.19,4.41,4.19s4.5-.73,4.5-4.19V9h1.07v7.71C68.94,20.92,65.45,21.55,63.37,21.55Z"/><path class="cls-1" d="M68.81,9.08v7.59c0,3.75-2.78,4.76-5.44,4.76S58,20.42,58,16.67V9.08h.83v7.45c0,3.33,2.17,4.31,4.54,4.31s4.63-1,4.63-4.31V9.08h.81m.25-.25H67.75v7.7c0,3.36-2.38,4.06-4.38,4.06s-4.29-.7-4.29-4.06V8.83H57.75v7.84c0,3.23,2,5,5.62,5,2.13,0,5.69-.66,5.69-5V8.83Z"/><polygon class="cls-1" points="77.14 21.33 77.14 9.76 71.86 9.76 71.86 8.96 83.56 8.96 83.56 9.76 78.27 9.76 78.27 21.33 77.14 21.33"/><path class="cls-1" d="M83.43,9.08v.55H78.15V21.21h-.88V9.63H72V9.08H83.43m.25-.25h-12V9.88H77V21.46H78.4V9.88h5.28V8.83Z"/><path class="cls-1" d="M92,21.55c-3.55,0-5.5-1.73-5.5-4.88V9h1.08v7.57c0,3.46,2.4,4.19,4.42,4.19s4.5-.73,4.5-4.19V9h1.06v7.71C97.56,20.92,94.08,21.55,92,21.55Z"/><path class="cls-1" d="M97.44,9.08v7.59c0,3.75-2.78,4.76-5.44,4.76s-5.38-1-5.38-4.76V9.08h.84v7.45c0,3.33,2.17,4.31,4.54,4.31s4.63-1,4.63-4.31V9.08h.81m.25-.25H96.38v7.7c0,3.36-2.39,4.06-4.38,4.06s-4.29-.7-4.29-4.06V8.83H86.37v7.84c0,3.23,2,5,5.63,5,2.12,0,5.69-.66,5.69-5V8.83Z"/><path class="cls-1" d="M111.39,21.33l-4.63-5.71h-3.45v5.71h-1.09V9h4.67c3.58,0,5.4,1.09,5.4,3.25,0,1.91-1.51,3.1-4.26,3.36l4.65,5.76Zm-4.8-6.49c3,0,4.55-.89,4.55-2.63s-1.4-2.45-4.55-2.45h-3.28v5.08Z"/><path class="cls-1" d="M106.89,9.08c3.23,0,5.28.89,5.28,3.13,0,1.95-1.67,3-4.38,3.25l4.63,5.75h-1l-4.63-5.71h-3.64v5.71h-.83V9.08h4.54M103.18,15h3.41c3,0,4.68-.88,4.68-2.75s-1.67-2.58-4.68-2.58h-3.41V15m3.71-6.13H102.1V21.46h1.33V15.75h3.27l4.55,5.62.08.09h1.61l-.33-.41-4.33-5.38c2.64-.32,4.14-1.56,4.14-3.46,0-2.24-1.86-3.38-5.53-3.38Zm-3.46,1.05h3.16c3.06,0,4.43.72,4.43,2.33s-1.49,2.5-4.43,2.5h-3.16V9.88Z"/><path class="cls-1" d="M121.48,21.55c-4.21,0-7-2.59-7-6.44s2.85-6.37,7.28-6.37a6.83,6.83,0,0,1,4.46,1.47l.12.09-.72.58-.08-.06a5.68,5.68,0,0,0-3.78-1.24c-3.8,0-6.15,2.12-6.15,5.53s2.29,5.61,6,5.61a7,7,0,0,0,3.74-.91V16h-4.05v-.8h5.18v4.91l0,0A8,8,0,0,1,121.48,21.55Z"/><path class="cls-1" d="M121.73,8.87a6.68,6.68,0,0,1,4.38,1.43l-.52.42a5.82,5.82,0,0,0-3.86-1.27c-3.88,0-6.28,2.19-6.28,5.66s2.28,5.73,6.1,5.73a7,7,0,0,0,3.86-1v-4h-4v-.55h4.92v4.72a7.79,7.79,0,0,1-4.81,1.36c-4.15,0-6.91-2.49-6.91-6.32s2.85-6.24,7.16-6.24m0-.25c-4.5,0-7.41,2.55-7.41,6.49s2.88,6.57,7.16,6.57a8.06,8.06,0,0,0,5-1.41l.09-.08V15.1h-5.42v1h4v3.59a6.9,6.9,0,0,1-3.61.85c-3.61,0-5.85-2.1-5.85-5.48s2.31-5.41,6-5.41a5.6,5.6,0,0,1,3.7,1.21l.16.13.16-.12.52-.42.24-.2-.24-.19a7,7,0,0,0-4.54-1.49Z"/><path class="cls-1" d="M139.84,21.33l-2-4.31h-6.48l-2,4.31h-1.12l6-12.37h.9l6,12.37Zm-2.4-5.09L136.39,14c-.65-1.37-1.21-2.59-1.8-4.06-.58,1.43-1.15,2.63-1.81,4l-1.09,2.29Z"/><path class="cls-1" d="M135,9.08l5.87,12.13h-.9l-2-4.31h-6.64l-2.05,4.31h-.84L134.2,9.08H135m-3.46,7.29h6.15l-1.13-2.43c-.7-1.47-1.27-2.7-1.88-4.22h-.09c-.61,1.52-1.2,2.75-1.89,4.22l-1.16,2.43m3.61-7.54h-1L134,9,128.13,21.1l-.17.36h1.39l.07-.14,2-4.17h6.33l2,4.17.07.14h1.46L141,21.1,135.17,9l-.07-.15Zm-3.21,7.29,1-2.07c.63-1.32,1.17-2.46,1.72-3.78.55,1.34,1.08,2.5,1.69,3.78l1,2.07Z"/><polygon class="cls-1" points="145.96 21.33 145.96 9.76 140.68 9.76 140.68 8.96 152.38 8.96 152.38 9.76 147.09 9.76 147.09 21.33 145.96 21.33"/><path class="cls-1" d="M152.25,9.08v.55H147V21.21h-.88V9.63H140.8V9.08h11.45m.25-.25H140.55V9.88h5.29V21.46h1.38V9.88h5.28V8.83Z"/><path class="cls-1" d="M163.74,21.33l-2-4.31h-6.48l-2.06,4.31h-1.11L158,9h.9l6,12.37Zm-2.39-5.09-1-2.24c-.65-1.37-1.21-2.6-1.81-4.06-.58,1.43-1.15,2.63-1.8,4l-1.09,2.29Z"/><path class="cls-1" d="M158.85,9.08l5.87,12.13h-.9l-2-4.31h-6.64l-2.06,4.31h-.83l5.85-12.13h.74m-3.45,7.29h6.14l-1.13-2.43c-.7-1.47-1.26-2.7-1.87-4.22h-.09c-.61,1.52-1.2,2.75-1.9,4.22l-1.15,2.43M159,8.83H158l-.07.15L152,21.1l-.17.36h1.39l.07-.14,2-4.17h6.32l2,4.17.06.14h1.46L165,21.1,159.08,9,159,8.83Zm-3.22,7.29,1-2.07c.62-1.32,1.17-2.46,1.71-3.78.55,1.34,1.08,2.5,1.7,3.78l1,2.07Z"/><path class="cls-1" d="M53.52,33.89a14.61,14.61,0,0,0,5.55,4.44,7.35,7.35,0,0,0-1,1.2A16.23,16.23,0,0,1,52.79,35v5.25H51.32V35.08a16.51,16.51,0,0,1-5.24,4.44,9.57,9.57,0,0,0-1-1.19,14.56,14.56,0,0,0,5.52-4.44H45.5V32.5h5.82V30.21H46.58V28.83h4.74V26.47h1.47v2.36h4.86v1.38H52.79V32.5h5.92v1.39Z"/><path class="cls-1" d="M72.73,35.12a28.14,28.14,0,0,0-2.17-2,6.5,6.5,0,0,1-1.17,1.55,7.06,7.06,0,0,0-1.13-.7A13.28,13.28,0,0,0,74.1,38.4a5.6,5.6,0,0,0-1,1.27,14.43,14.43,0,0,1-5.24-4.19v4.79H66.33V35.53a15,15,0,0,1-5.19,4.12,5.91,5.91,0,0,0-1-1.19,13.82,13.82,0,0,0,6.18-5.07V29.81H60.72V28.45h5.61v-2h1.48v2H73.6v1.36H67.81v3.5c.14.23.27.44.42.65a7,7,0,0,0,2.06-3.9l1.36.24A10.09,10.09,0,0,1,71.12,32a30.26,30.26,0,0,1,2.6,2.17Zm-8.13-4.8a12.52,12.52,0,0,1-.55,1.7,20.53,20.53,0,0,1,1.59,1.49l-1,1a13.72,13.72,0,0,0-1.23-1.28,7.9,7.9,0,0,1-1.82,2.23,8.05,8.05,0,0,0-1.08-.92,7.56,7.56,0,0,0,2.69-4.47Z"/><path class="cls-1" d="M84.29,33.63c.55,3.06,1.58,5.1,2.89,5.1.43,0,.6-.58.7-2.19a3.25,3.25,0,0,0,1.16.7c-.22,2.29-.71,2.88-1.94,2.88-2.27,0-3.6-2.7-4.24-6.49H78.61V38l4-1a7.1,7.1,0,0,0,.11,1.28c-4.46,1.28-5.11,1.49-5.5,1.74a4,4,0,0,0-.58-1.17,1.17,1.17,0,0,0,.58-1.1V28.06a55.67,55.67,0,0,0,9.75-1.4l.73,1.27a34.35,34.35,0,0,1-3.8.73,35.74,35.74,0,0,0,.23,3.59h4.74v1.38Zm-1.61-1.38c-.12-1.09-.2-2.22-.23-3.39-1.28.15-2.59.27-3.84.36v3Z"/><path class="cls-1" d="M103.94,38.48v1.29H90.48V38.48h6v-1.6H92V35.6h4.51V34.43H95.41V31.37H93.72a4.62,4.62,0,0,1-2.3,3.43,6.49,6.49,0,0,0-.92-1,3.57,3.57,0,0,0,1.89-2.46h-1.7V30.12h1.83V28.29H91.21V27.05H98v1.24H96.71v1.83h1.57v1.25H96.71v2.79H98V35.6h4.42v1.28H98v1.6Zm-8.53-8.36V28.29h-1.6v1.83Zm5,2.23H99.08v-5h1.28Zm2.8.78c0,.71-.14,1.06-.64,1.27a7,7,0,0,1-2.28.22,4.7,4.7,0,0,0-.43-1.26c.77,0,1.51,0,1.72,0s.3-.06.3-.25V26.6h1.33Z"/></svg>